HIERARCHY
ROOT Hips
{
  OFFSET -102.467 93.6631 130.069
  CHANNELS 6 Xposition Yposition Zposition Zrotation Xrotation Yrotation
  JOINT LeftUpLeg
  {
    OFFSET 8.64259 1.95398 -2.38835
    CHANNELS 3 Zrotation Xrotation Yrotation
    JOINT LeftLeg
    {
      OFFSET 43.7702 0 0
      CHANNELS 3 Zrotation Xrotation Yrotation
      JOINT LeftFoot
      {
        OFFSET 40.6238 0 0
        CHANNELS 3 Zrotation Xrotation Yrotation
        JOINT LeftToeBase
        {
          OFFSET 12.7242 0 0
          CHANNELS 3 Zrotation Xrotation Yrotation
          End Site
          {
            OFFSET 0 0 0
          }
        }
      }
    }
  }
  JOINT RightUpLeg
  {
    OFFSET -8.2249 1.95398 -2.59336
    CHANNELS 3 Zrotation Xrotation Yrotation
    JOINT RightLeg
    {
      OFFSET 43.5653 0 0
      CHANNELS 3 Zrotation Xrotation Yrotation
      JOINT RightFoot
      {
        OFFSET 40.6238 0 0
        CHANNELS 3 Zrotation Xrotation Yrotation
        JOINT RightToeBase
        {
          OFFSET 12.7242 0 0
          CHANNELS 3 Zrotation Xrotation Yrotation
          End Site
          {
            OFFSET 0 0 0
          }
        }
      }
    }
  }
  JOINT Spine
  {
    OFFSET 0.165834 0.87714 6.61349
    CHANNELS 3 Zrotation Xrotation Yrotation
    JOINT Spine1
    {
      OFFSET 7.38963 1.71661e-005 0
      CHANNELS 3 Zrotation Xrotation Yrotation
      JOINT Spine2
      {
        OFFSET 11.9445 1.14441e-005 0
        CHANNELS 3 Zrotation Xrotation Yrotation
        JOINT Spine3
        {
          OFFSET 14.7254 4.19617e-005 0
          CHANNELS 3 Zrotation Xrotation Yrotation
          JOINT Spine4
          {
            OFFSET 10.9679 0 0
            CHANNELS 3 Zrotation Xrotation Yrotation
            JOINT RightShoulder
            {
              OFFSET 2.46616 -1.6653 3.69651
              CHANNELS 3 Zrotation Xrotation Yrotation
              JOINT RightArm
              {
                OFFSET 13.0012 0 0
                CHANNELS 3 Zrotation Xrotation Yrotation
                JOINT RightForeArm
                {
                  OFFSET 28.7848 1.52588e-005 0
                  CHANNELS 3 Zrotation Xrotation Yrotation
                  JOINT RightHand
                  {
                    OFFSET 26.5688 1.52588e-005 0
                    CHANNELS 3 Zrotation Xrotation Yrotation
                    End Site
                    {
                      OFFSET 0 0 0
                    }
                  }
                }
              }
            }
            JOINT LeftShoulder
            {
              OFFSET 2.38034 -1.29275 -3.7523
              CHANNELS 3 Zrotation Xrotation Yrotation
              JOINT LeftArm
              {
                OFFSET 16.3182 6.10351e-005 0
                CHANNELS 3 Zrotation Xrotation Yrotation
                JOINT LeftForeArm
                {
                  OFFSET 27.0901 0 0
                  CHANNELS 3 Zrotation Xrotation Yrotation
                  JOINT LeftHand
                  {
                    OFFSET 24.5451 1.52588e-005 0
                    CHANNELS 3 Zrotation Xrotation Yrotation
                    End Site
                    {
                      OFFSET 0 0 0
                    }
                  }
                }
              }
            }
            JOINT Neck
            {
              OFFSET 5.0226 -0.0266342 0
              CHANNELS 3 Zrotation Xrotation Yrotation
              JOINT Head
              {
                OFFSET 6.69363 2.86102e-005 0
                CHANNELS 3 Zrotation Xrotation Yrotation
                End Site
                {
                  OFFSET 0 0 0
                }
              }
            }
          }
        }
      }
    }
  }
}
MOTION
Frames:	9
Frame Time:	0.0416667
-240.65 92.3303 263.231 -98.5521 -59.9802 -95.0478 -178.619 -6.56379 91.0025 -35.7192 23.7342 6.52829 62.4015 4.07863 2.17381 51.5703 -2.11326 2.17255 175.598 16.627 88.8656 -15.9514 -2.89613 1.89459 57.7106 10.5553 17.5497 41.4925 -4.02713 -3.30834 -2.72671 8.18681 -90.0323 10.5197 -5.44595 0.421483 -1.13994 -5.42212 0.661478 -23.764 -5.32012 -1.23953 -3.75137 -5.32013 -1.23953 85.4463 -57.7139 -105.777 25.0457 -4.92572 -6.44869 -1.02394 -9.8009 -6.4961 -10.2443 -0.454371 -0.0229955 -77.6018 -39.1698 97.2721 -30.2727 11.9542 -28.131 16.6518 26.2261 -32.1925 -8.2973 -0.0939399 -4.30399 12.1925 3.66185 -24.0612 -23.2297 5.48243 24.1017 
-234.74 92.2401 255.832 -102.849 -58.4511 -101.094 -178.806 -7.87838 86.6077 -30.0939 26.5117 5.64713 65.6073 10.3445 14.0413 50.4808 -1.05357 5.78548 175.176 17.1186 86.2519 -11.5744 4.76087 1.10305 55.6408 11.2585 23.38 48.7662 -4.46867 1.30206 -2.35807 8.25993 -89.7557 10.3784 -4.58576 0.885834 -1.28498 -4.54232 1.08719 -23.8846 -4.63955 -0.536335 -3.87196 -4.63955 -0.536344 91.2337 -57.6406 -97.68 26.2615 -5.33834 -1.77393 -2.27497 -10.758 -10.3416 -9.24585 -0.524503 1.45243 -79.9905 -44.3647 93.3675 -24.1646 12.6191 -28.8748 15.3936 27.856 -31.2114 -8.45107 -0.107264 -4.0587 10.5016 2.61913 -21.2061 -21.8655 4.079 21.8374 
-229.605 91.9308 249.238 -105.032 -54.8917 -103.565 -177.439 -5.0032 85.6335 -29.9695 25.4613 3.84417 67.8143 12.2222 17.033 45.8585 -1.3234 3.05813 171.824 19.7992 85.8044 -19.6329 1.73189 2.927 53.7401 10.679 23.8016 46.8888 -4.39188 0.167675 -1.61737 8.39008 -89.6997 10.1067 -3.08609 0.853001 -1.56097 -3.04556 0.988114 -24.1256 -3.19961 -0.114871 -4.11293 -3.19961 -0.114871 96.4325 -55.8514 -90.4972 29.0017 -6.60964 2.01167 -3.9145 -13.2175 -13.665 -6.98586 -0.345595 0.61971 -82.4881 -49.2779 89.7487 -19.6645 12.219 -26.985 14.2714 29.4519 -29.7619 -7.52094 -0.122898 -3.67101 8.87219 1.64602 -14.397 -19.9279 2.27655 17.6435 
-225.485 92.3399 244.116 -105.42 -54.0082 -102.781 -177.019 -0.167251 85.9476 -31.5137 23.1273 3.48257 69.4385 11.4113 15.0712 39.0349 -0.820214 2.48222 170.032 21.8359 85.6793 -40.4758 -7.38608 2.4459 54.6003 9.68388 21.474 44.5311 -3.62335 0.681559 -1.06074 8.28308 -89.9975 10.311 -2.11214 0.188197 -1.35826 -2.1018 0.281002 -23.9069 -2.071 -0.455577 -3.8943 -2.07101 -0.45558 100.187 -53.6376 -85.1219 30.9154 -6.6483 3.54926 -4.81393 -15.8366 -13.9812 -4.80387 -0.259631 1.34175 -84.0381 -51.7214 87.6477 -21.3991 10.9835 -20.706 10.8665 28.5296 -24.5205 -3.17374 -0.0988635 -2.57541 7.55617 0.75991 -8.47113 -19.8493 0.440862 14.7366 
-221.873 92.7622 239.167 -104.445 -51.74 -100.24 -176.864 4.09163 87.2964 -31.896 18.7971 3.47402 69.5983 8.81655 11.4866 32.526 -0.376506 0.583684 171.999 18.1959 85.5181 -56.6037 -12.9831 -0.140284 53.4431 9.09809 18.5332 40.8582 -3.34162 -1.51057 -0.447934 8.0267 -90.3334 10.8178 -1.04582 -0.565722 -0.852831 -1.06972 -0.519139 -23.3893 -0.827436 -0.853883 -3.37666 -0.82746 -0.853884 102.047 -51.9586 -82.3501 31.1016 -6.6866 4.3581 -4.96624 -15.6627 -14.3124 -4.18704 -0.219266 1.06109 -84.6474 -53.2992 86.9267 -23.8079 9.1226 -11.0954 9.41506 29.0102 -21.4007 -3.79165 -0.11574 -2.33537 7.21263 0.204923 -6.80836 -20.2814 -0.29136 13.0775 
-218.464 92.8496 233.925 -102.817 -48.8318 -99.8244 -176.838 7.95105 86.9193 -30.0698 18.7028 2.305 65.8006 6.08933 11.7999 32.2072 -0.313868 0.871046 172.982 9.47963 82.0479 -59.2445 -13.2892 -2.23756 53.0392 8.4413 16.5061 39.7651 -3.56226 -3.39616 -0.0695817 7.82485 -90.2588 11.2232 -0.258832 -0.489715 -0.447827 -0.280134 -0.477857 -22.9822 -0.0996869 -0.544861 -2.9696 -0.0996995 -0.544871 101.434 -51.6649 -83.2871 30.8215 -5.79877 3.31267 -5.06874 -13.5859 -16.1025 -7.84381 -0.435852 1.28999 -83.7879 -53.3755 88.1883 -24.7335 8.1889 -4.21456 7.31738 34.9976 -16.5451 -6.58894 -0.202848 -1.43557 7.56106 0.24936 -8.00977 -20.4461 -0.211889 14.5428 
-214.927 92.9374 228.261 -99.9679 -45.745 -97.4419 -177.39 12.6094 87.3668 -27.3791 16.095 2.30558 60.9499 2.45619 10.9139 32.0404 -0.388458 -0.0926847 173.538 -1.27486 80.8152 -46.0251 -12.7608 -3.5019 51.7138 10.2645 21.3222 44.2366 -4.5616 -2.51052 0.378151 7.54318 -90.3675 11.7893 0.579394 -0.792402 0.118271 0.543957 -0.817141 -22.4167 0.790754 -0.581637 -2.40406 0.790767 -0.581642 101.267 -51.2295 -83.5496 30.1017 -6.10326 1.43182 -5.36181 -11.158 -20.1584 -11.9448 -0.696117 1.82312 -82.7857 -54.6414 89.7544 -24.6795 4.18919 -0.0001648 5.14379 40.4122 -10.0924 -8.4145 -0.310875 -0.189561 7.09721 0.553807 -6.80523 -21.2704 -0.159421 13.6618 
-211.206 92.8853 221.278 -96.3002 -43.9802 -95.2371 -178.744 16.4731 88.4221 -19.7665 14.5552 2.58322 53.0508 -1.67517 9.4002 31.5363 -0.358731 -0.248898 172.842 -6.27148 81.6428 -31.3843 -12.2456 -3.18634 60.2351 8.41465 22.2522 46.021 -2.29697 5.81469 0.674711 7.37482 -90.4138 12.1283 1.14563 -0.950837 0.457501 1.10268 -1.00035 -22.0805 1.37843 -0.562539 -2.06783 1.37842 -0.562545 101.715 -50.1405 -82.8697 29.5666 -8.02222 -1.91867 -7.71103 -10.9488 -26.6203 -10.8582 -0.521742 0.396878 -82.5876 -55.5028 90.1079 -24.3228 1.02817 2.03257 5.51728 39.3215 -8.82173 -10.484 -0.310396 -1.20688 9.55927 0.74476 -6.16976 -22.9752 -0.042326 12.8385 
-206.725 93.4363 213.144 -97.1378 -43.6622 -93.7475 -177.817 15.4433 91.8963 -9.0951 15.0442 2.92853 50.685 -2.36181 5.30518 37.1977 -0.280244 4.99292 172.386 -5.61845 85.1061 -27.5549 -8.91457 -0.687356 70.7643 5.10904 19.2438 34.9437 -0.306802 5.31409 0.745423 7.79709 -90.6808 11.2857 1.16666 -1.47139 -0.385605 1.10078 -1.52131 -22.9211 1.5549 -1.05276 -2.90844 1.5549 -1.05277 100.981 -50.4148 -84.0065 27.0818 -10.3999 -6.31762 -10.883 -11.7817 -32.6747 -8.4824 -0.250832 -1.84138 -82.8871 -55.2849 89.6629 -24.7765 0.683784 -0.831496 6.78179 36.1124 -10.58 -11.3 -0.290578 -1.80783 13.332 0.667024 -8.59527 -23.0596 0.370269 14.7948 
